<?xml version="1.0" standalone="no"?>
<!DOCTYPE svg PUBLIC "-//W3C//DTD SVG 20010904//EN"
 "http://www.w3.org/TR/2001/REC-SVG-20010904/DTD/svg10.dtd">
<svg version="1.0" xmlns="http://www.w3.org/2000/svg"
 width="32.000000pt" height="32.000000pt" viewBox="0 0 32.000000 32.000000"
 preserveAspectRatio="xMidYMid meet">

<g transform="translate(0.000000,32.000000) scale(0.100000,-0.100000)"
fill="#000000" stroke="none">
<path d="M50 292 c0 -6 5 -14 10 -17 15 -9 12 -25 -5 -25 -8 0 -15 -5 -15 -10
0 -6 6 -10 13 -9 6 1 29 1 50 0 33 -1 37 -4 37 -26 0 -14 -4 -25 -10 -25 -11
0 -74 -90 -63 -90 4 0 0 -5 -10 -11 -21 -12 -22 -29 -3 -29 8 0 25 17 38 38
22 36 23 36 26 12 2 -14 9 -31 14 -37 7 -9 7 -13 -2 -13 -27 0 -1 -25 28 -27
30 -3 43 9 24 21 -9 6 -3 76 7 76 3 0 17 -16 30 -35 13 -19 30 -35 37 -35 19
0 18 19 -2 27 -22 8 -94 122 -87 139 4 12 51 20 91 15 6 -1 12 3 12 9 0 5 -7
10 -15 10 -17 0 -20 16 -5 25 6 4 8 10 5 15 -7 11 -55 -9 -55 -22 0 -4 -4 -8
-10 -8 -5 0 -10 7 -10 15 0 8 -4 15 -9 15 -5 0 -16 3 -25 6 -12 4 -16 0 -16
-15 0 -26 -1 -26 -44 0 -20 12 -36 16 -36 11z"/>
</g>
</svg>
